<svg xmlns="http://www.w3.org/2000/svg" width="40" height="40" viewBox="0 0 40 40">
  <path fill="#6e6e6e" fill-rule="evenodd" d="m 19.999995,2 c -1.575343,0 -4.21202,0.5976 -6.694018,1.26 A 145.42176,146.664 0 0 0 6.7095261,5.216 3.4600432,3.4896 0 0 0 4.322715,8.0576 c -1.3635521,10.0728 1.7990321,17.5368 5.6350635,22.476 a 26.63329,26.8608 0 0 0 5.7516675,5.52 c 0.882859,0.6144 1.701466,1.0824 2.39633,1.4064 0.642512,0.2976 1.327857,0.54 1.894219,0.54 0.566362,0 1.254087,-0.2424 1.894219,-0.54 0.694864,-0.324 1.513472,-0.792 2.39633,-1.4064 a 26.630911,26.8584 0 0 0 5.754047,-5.52 c 3.833652,-4.9392 6.996236,-12.4032 5.632684,-22.476 A 3.4600432,3.4896 0 0 0 33.290464,5.216 145.37417,146.616 0 0 0 26.694013,3.26 C 24.212015,2.5976 21.577718,2 19.999995,2 Z m 1.189836,17.796 a 3.5695082,3.6 0 1 0 -2.379672,0 l -0.916174,4.776 A 1.1898361,1.2 0 0 0 19.062404,26 h 1.875182 a 1.1898361,1.2 0 0 0 1.166039,-1.428 z"/>
</svg>
